<svg width="10" height="9" viewBox="0 0 10 9" fill="none" xmlns="http://www.w3.org/2000/svg">
<path d="M4.93889 0.917312C5.00054 0.727586 5.26895 0.727587 5.3306 0.917312L6.19813 3.58731C6.2257 3.67215 6.30477 3.7296 6.39398 3.7296H9.20138C9.40087 3.7296 9.48381 3.98487 9.32242 4.10213L7.05119 5.75228C6.97901 5.80472 6.94881 5.89767 6.97638 5.98252L7.84391 8.65251C7.90556 8.84224 7.68841 9 7.52702 8.88275L5.25579 7.2326C5.18361 7.18016 5.08588 7.18016 5.0137 7.2326L2.74247 8.88275C2.58108 9 2.36393 8.84224 2.42558 8.65251L3.29311 5.98252C3.32068 5.89767 3.29048 5.80472 3.2183 5.75228L0.947067 4.10213C0.785677 3.98487 0.868621 3.7296 1.06811 3.7296H3.87551C3.96472 3.7296 4.04379 3.67215 4.07136 3.58731L4.93889 0.917312Z" fill="#F1CC4A"/>
</svg>
